Coordinates
version=1
nRows=18
nColumns=38
inDegrees=yes

Units are S.I. units (second, meters, Newtons, ...)
Angles are in degrees.

endheader
time	pelvis_tilt	pelvis_list	pelvis_rotation	pelvis_tx	pelvis_ty	pelvis_tz	hip_flexion_r	hip_adduction_r	hip_rotation_r	knee_angle_r	ankle_angle_r	subtalar_angle_r	mtp_angle_r	hip_flexion_l	hip_adduction_l	hip_rotation_l	knee_angle_l	ankle_angle_l	subtalar_angle_l	mtp_angle_l	lumbar_extension	lumbar_bending	lumbar_rotation	arm_flex_r	arm_add_r	arm_rot_r	elbow_flex_r	pro_sup_r	wrist_flex_r	wrist_dev_r	arm_flex_l	arm_add_l	arm_rot_l	elbow_flex_l	pro_sup_l	wrist_flex_l	wrist_dev_l
      2.25000000	      1.43436561	     -1.41722519	      3.34919451	      0.35416025	      0.92149704	     -0.15274142	     -2.10782930	      7.41321244	     -5.16635960	    -15.05876219	     10.12659553	     -2.09071865	      0.94770272	     24.06262177	      0.78367707	      3.23231040	    -45.24449553	      1.00341936	     -3.78469169	     13.42308531	     -7.88122299	      4.67387135	      1.53223861	     -3.12317340	    -23.19670879	      8.20149957	     31.69403203	     86.51662706	      0.00000000	      0.00000000	     -5.68492443	    -14.87261874	     15.65162253	     21.75280293	     86.51662706	      0.00000000	      0.00000000
      2.26000000	      1.54671340	     -1.38038163	      3.29089421	      0.36556220	      0.92051523	     -0.15207574	     -3.46910042	      7.45577528	     -5.30075080	    -14.25742764	     10.61760676	     -1.45599954	      0.80892028	     24.53263350	      0.91652038	      3.08671658	    -42.52323716	      1.04029233	     -4.78237224	     12.43777746	     -8.13247364	      4.63709769	      1.89862001	     -2.76056696	    -23.48944929	      8.09972823	     32.27137529	     86.51662706	      0.00000000	      0.00000000	     -5.85527193	    -14.78650217	     15.44432326	     21.55953627	     86.51662706	      0.00000000	      0.00000000
      2.27000000	      1.66782762	     -1.36634277	      3.24859775	      0.37703813	      0.91929533	     -0.15146848	     -4.82329383	      7.51709418	     -5.46024819	    -13.49782952	     11.10420194	     -0.80417554	      0.69722098	     24.91736638	      1.03896429	      2.97863361	    -39.70589633	      1.08745628	     -5.74707706	     11.52473292	     -8.39068538	      4.63148853	      2.22920796	     -2.39868697	    -23.77498341	      7.99545307	     32.82303568	     86.51662706	      0.00000000	      0.00000000	     -6.01482582	    -14.68758194	     15.26777083	     21.34030915	     86.51662706	      0.00000000	      0.00000000
      2.28000000	      1.78890328	     -1.37098542	      3.21838127	      0.38859294	      0.91784240	     -0.15092605	     -6.14525378	      7.59475864	     -5.61749190	    -12.80466381	     11.58256033	     -0.17002649	      0.62051002	     25.23042678	      1.15216558	      2.90530226	    -36.81282558	      1.17366464	     -6.58574790	     10.71630071	     -8.64400605	      4.65238341	      2.52928889	     -2.03832233	    -24.05182794	      7.89663841	     33.34170939	     86.51662706	      0.00000000	      0.00000000	     -6.16135169	    -14.57540918	     15.12628511	     21.09190775	     86.51662706	      0.00000000	      0.00000000
      2.29000000	      1.90030423	     -1.39249957	      3.19524219	      0.40022902	      0.91617645	     -0.15045215	     -7.41093278	      7.68688249	     -5.74842473	    -12.19930620	     12.04974440	      0.41636402	      0.58502017	     25.48695728	      1.25312234	      2.86230662	    -33.87124766	      1.31130932	     -7.19962203	     10.03472409	     -8.87919232	      4.69635296	      2.80606761	     -1.67990654	    -24.31870122	      7.80975594	     33.82035122	     86.51662706	      0.00000000	      0.00000000	     -6.29235154	    -14.44986156	     15.02411166	     20.81113230	     86.51662706	      0.00000000	      0.00000000
      2.30000000	      1.99144693	     -1.43142984	      3.17239779	      0.41193814	      0.91431892	     -0.15003864	     -8.60100739	      7.79221289	     -5.83565453	    -11.69734258	     12.50336279	      0.93391283	      0.59463319	     25.70324239	      1.33553426	      2.84044060	    -30.91829422	      1.49702587	     -7.49587702	      9.49145013	     -9.08331752	      4.76098277	      3.06788263	     -1.32374468	    -24.57455650	      7.73924093	     34.25292499	     86.51662706	      0.00000000	      0.00000000	     -6.40526958	    -14.31129253	     14.96540916	     20.49566421	     86.51662706	      0.00000000	      0.00000000
      2.31000000	      2.05214992	     -1.48957060	      3.14118804	      0.42370764	      0.91229247	     -0.14966484	     -9.70284730	      7.90951854	     -5.87068233	    -11.30804347	     12.94085181	      1.37349151	      0.65046609	     25.89676040	      1.39190235	      2.82272668	    -28.00287702	      1.71634446	     -7.40021056	      9.08760791	     -9.24593201	      4.84443100	      3.32339812	     -0.97048358	    -24.81839676	      7.68714619	     34.63522021	     86.51662706	      0.00000000	      0.00000000	     -6.49760322	    -14.16060167	     14.95403467	     20.14495887	     86.51662706	      0.00000000	      0.00000000
      2.32000000	      2.07525167	     -1.56800201	      3.09202504	      0.43553051	      0.91012759	     -0.14931245	    -10.71062057	      8.03646903	     -5.85441377	    -11.03565606	     13.35858688	      1.73911021	      0.75092356	     26.08592065	      1.41644500	      2.78338959	    -25.18573602	      1.95099339	     -6.86846179	      8.81546332	     -9.36111284	      4.94479898	      3.58087657	     -0.62185206	    -25.04884524	      7.65304092	     34.96554441	     86.51662706	      0.00000000	      0.00000000	     -6.56711397	    -13.99933938	     14.99317604	     19.76095170	     86.51662706	      0.00000000	      0.00000000
      2.33000000	      2.05899009	     -1.66524878	      3.01618217	      0.44741006	      0.90786250	     -0.14897737	    -11.62403114	      8.16861149	     -5.79598590	    -10.88166460	     13.75116494	      2.04720035	      0.89237048	     26.28839720	      1.40802701	      2.69015025	    -22.53732221	      2.18632484	     -5.89533071	      8.66045913	     -9.42875010	      5.05913112	      3.84752590	     -0.28157717	    -25.26365814	      7.63418534	     35.24509989	     86.51662706	      0.00000000	      0.00000000	     -6.61225724	    -13.82988209	     15.08489712	     19.34839889	     86.51662706	      0.00000000	      0.00000000
      2.34000000	      2.00784530	     -1.77672676	      2.90767918	      0.45936098	      0.90554069	     -0.14865493	    -12.44662694	      8.29849012	     -5.71050289	    -10.84698204	     14.11114267	      2.32409892	      1.07044823	     26.51799537	      1.37193440	      2.51022939	    -20.13343917	      2.41619397	     -4.51860525	      8.60338528	     -9.45453752	      5.18202545	      4.12889219	      0.04374350	    -25.45946813	      7.62598280	     35.47790736	     86.51662706	      0.00000000	      0.00000000	     -6.63280970	    -13.65561045	     15.22967229	     18.91475354	     86.51662706	      0.00000000	      0.00000000
      2.35000000	      1.93133363	     -1.89503984	      2.76429671	      0.47140160	      0.90321234	     -0.14832978	    -13.18493579	      8.41514134	     -5.61638690	    -10.93345704	     14.42931679	      2.60201327	      1.28191220	     26.78132095	      1.31949565	      2.21911304	    -18.04886902	      2.64333645	     -2.81795304	      8.62227831	     -9.44836985	      5.30439058	      4.42836987	      0.34412146	    -25.63190460	      7.62265262	     35.67024249	     86.51662706	      0.00000000	      0.00000000	     -6.63059281	    -13.48099891	     15.42600587	     18.46956963	     86.51662706	      0.00000000	      0.00000000
      2.36000000	      1.84131663	     -2.01017396	      2.58724719	      0.48354702	      0.90093157	     -0.14799324	    -13.84859552	      8.50441537	     -5.53271998	    -11.14436084	     14.69544897	      2.91392272	      1.52676463	     27.07568820	      1.26586328	      1.80977001	    -16.34969528	      2.87454393	     -0.90814129	      8.69378457	     -9.42128331	      5.41323922	      4.74692161	      0.60632506	    -25.77599315	      7.61799291	     35.82966926	     86.51662706	      0.00000000	      0.00000000	     -6.61010230	    -13.31149826	     15.67024115	     18.02352075	     86.51662706	      0.00000000	      0.00000000
      2.37000000	      1.74933573	     -2.10996218	      2.38007337	      0.49583055	      0.89874172	     -0.14765252	    -14.44985270	      8.54993664	     -5.47656755	    -11.48347275	     14.89920454	      3.28808327	      1.81038350	     27.38895775	      1.22723360	      1.29934792	    -15.08537616	      3.11160203	      1.07255466	      8.79392845	     -9.38163621	      5.49295812	      5.08296531	      0.81491599	    -25.88664464	      7.60606896	     35.96384717	     86.51662706	      0.00000000	      0.00000000	     -6.57880682	    -13.15313444	     15.95665146	     17.58718765	     86.51662706	      0.00000000	      0.00000000
      2.38000000	      1.66470165	     -2.18141822	      2.14753191	      0.50832548	      0.89666587	     -0.14731448	    -15.00103033	      8.53467480	     -5.46036755	    -11.95286867	     15.03098233	      3.74293151	      2.14529381	     27.70128749	      1.21874983	      0.73075807	    -14.28166845	      3.34073832	      2.97710148	      8.89847719	     -9.33163530	      5.52769265	      5.43224127	      0.95418072	    -25.95910621	      7.58169389	     36.07933008	     86.51662706	      0.00000000	      0.00000000	     -6.54692218	    -13.01192126	     16.27785277	     17.16980615	     86.51662706	      0.00000000	      0.00000000
      2.39000000	      1.59264506	     -2.21258397	      1.89482275	      0.52112135	      0.89472252	     -0.14697128	    -15.51053729	      8.44360609	     -5.48985611	    -12.55048984	     15.08223806	      4.28318275	      2.55219666	     27.98847243	      1.25391905	      0.16786171	    -13.93563678	      3.52458626	      4.66528990	      8.98331107	     -9.26535194	      5.50400499	      5.78744721	      1.01063717	    -25.98929986	      7.54063608	     36.18054535	     86.51662706	      0.00000000	      0.00000000	     -6.52645887	    -12.89320751	     16.62546414	     16.77820545	     86.51662706	      0.00000000	      0.00000000
      2.40000000	      1.53183536	     -2.19423787	      1.62758441	      0.53427843	      0.89293791	     -0.14660826	    -15.97948710	      8.26717451	     -5.56310547	    -13.26914258	     15.04485952	      4.89783820	      3.05988619	     28.22645400	      1.34550917	     -0.31509924	    -14.01436049	      3.60074974	      6.01761790	      9.02530017	     -9.16903485	      5.41281183	      6.13758581	      0.97552025	    -25.97397351	      7.47955976	     36.26908039	     86.51662706	      0.00000000	      0.00000000	     -6.52944889	    -12.80105740	     16.99086393	     16.41616589	     86.51662706	      0.00000000	      0.00000000
      2.41000000	      1.47228517	     -2.12110032	      1.35299953	      0.54781112	      0.89131823	     -0.14622005	    -16.40087859	      8.00391107	     -5.67100404	    -14.09814125	     14.90925536	      5.56063743	      3.70376715	     28.39694490	      1.50697421	     -0.64717564	    -14.45884920	      3.48964848	      6.94536723	      9.00406616	     -9.02397338	      5.24980907	      6.46728855	      0.84659500	    -25.91063127	      7.39577962	     36.34335490	     86.51662706	      0.00000000	      0.00000000	     -6.56558324	    -12.73785745	     17.36588598	     16.08433369	     86.51662706	      0.00000000	      0.00000000
      2.42000000	      1.39661890	     -1.99193861	      1.08171546	      0.56170191	      0.88980549	     -0.14581476	    -16.76165996	      7.66025069	     -5.79913990	    -15.02737548	     14.66118490	      6.23315433	      4.52284678	     28.49443399	      1.75294567	     -0.77357860	    -15.19346720	      3.11164337	      7.39577755	      8.90464712	     -8.81150425	      5.01416896	      6.75675762	      0.62880186	    -25.79731952	      7.28697210	     36.39872664	     86.51662706	      0.00000000	      0.00000000	     -6.63976957	    -12.70427728	     17.74329659	     15.78067977	     86.51662706	      0.00000000	      0.00000000
